<mxfile host="app.diagrams.net" modified="2020-11-24T11:03:25.317Z" agent="5.0 (Macintosh; Intel Mac OS X 10_14_3) AppleWebKit/537.36 (KHTML, like Gecko) Chrome/86.0.4240.198 Safari/537.36" etag="QpeXvH95fdhp5QFCRd1g" version="13.10.0" type="github">
  <diagram id="OABMhTI3b0GP39cpQIiX" name="Page-1">
    <mxGraphModel dx="1666" dy="771" grid="0" gridSize="10" guides="1" tooltips="1" connect="1" arrows="1" fold="1" page="1" pageScale="1" pageWidth="827" pageHeight="1169" math="0" shadow="0">
      <root>
        <mxCell id="0" />
        <mxCell id="1" parent="0" />
        <mxCell id="1BzoUXjY3kTclnEjUatC-49" value="" style="rounded=0;whiteSpace=wrap;html=1;strokeColor=#000000;dashed=1;" parent="1" vertex="1">
          <mxGeometry x="396" y="219" width="431" height="331" as="geometry" />
        </mxCell>
        <mxCell id="1BzoUXjY3kTclnEjUatC-42" style="edgeStyle=orthogonalEdgeStyle;rounded=0;orthogonalLoop=1;jettySize=auto;html=1;exitX=0;exitY=0.5;exitDx=0;exitDy=0;entryX=1;entryY=0.25;entryDx=0;entryDy=0;strokeColor=#A680B8;" parent="1" source="1BzoUXjY3kTclnEjUatC-39" target="1BzoUXjY3kTclnEjUatC-1" edge="1">
          <mxGeometry relative="1" as="geometry" />
        </mxCell>
        <mxCell id="1BzoUXjY3kTclnEjUatC-39" value="" style="rounded=0;whiteSpace=wrap;html=1;strokeColor=#000000;dashed=1;" parent="1" vertex="1">
          <mxGeometry x="481" y="54" width="690" height="140" as="geometry" />
        </mxCell>
        <mxCell id="1BzoUXjY3kTclnEjUatC-50" style="edgeStyle=orthogonalEdgeStyle;rounded=0;orthogonalLoop=1;jettySize=auto;html=1;exitX=0.5;exitY=0;exitDx=0;exitDy=0;entryX=0.5;entryY=1;entryDx=0;entryDy=0;strokeColor=#A680B8;" parent="1" source="1BzoUXjY3kTclnEjUatC-1" target="1BzoUXjY3kTclnEjUatC-13" edge="1">
          <mxGeometry relative="1" as="geometry" />
        </mxCell>
        <mxCell id="1BzoUXjY3kTclnEjUatC-1" value="配置中心Server&lt;br&gt;/K8s ApiServer" style="whiteSpace=wrap;html=1;aspect=fixed;fillColor=#e1d5e7;strokeColor=#9673a6;" parent="1" vertex="1">
          <mxGeometry x="138" y="359" width="140" height="140" as="geometry" />
        </mxCell>
        <mxCell id="1BzoUXjY3kTclnEjUatC-44" style="edgeStyle=orthogonalEdgeStyle;rounded=0;orthogonalLoop=1;jettySize=auto;html=1;exitX=1;exitY=0.5;exitDx=0;exitDy=0;strokeColor=#A680B8;" parent="1" source="1BzoUXjY3kTclnEjUatC-4" target="1BzoUXjY3kTclnEjUatC-43" edge="1">
          <mxGeometry relative="1" as="geometry" />
        </mxCell>
        <mxCell id="1BzoUXjY3kTclnEjUatC-4" value="filebeat" style="rounded=1;whiteSpace=wrap;html=1;fillColor=#d5e8d4;strokeColor=#82b366;" parent="1" vertex="1">
          <mxGeometry x="614" y="277" width="120" height="60" as="geometry" />
        </mxCell>
        <mxCell id="1BzoUXjY3kTclnEjUatC-45" style="edgeStyle=orthogonalEdgeStyle;rounded=0;orthogonalLoop=1;jettySize=auto;html=1;exitX=1;exitY=0.5;exitDx=0;exitDy=0;entryX=0.008;entryY=0.5;entryDx=0;entryDy=0;entryPerimeter=0;strokeColor=#A680B8;" parent="1" source="1BzoUXjY3kTclnEjUatC-5" target="1BzoUXjY3kTclnEjUatC-43" edge="1">
          <mxGeometry relative="1" as="geometry" />
        </mxCell>
        <mxCell id="1BzoUXjY3kTclnEjUatC-5" value="metricbeat" style="rounded=1;whiteSpace=wrap;html=1;fillColor=#d5e8d4;strokeColor=#82b366;" parent="1" vertex="1">
          <mxGeometry x="616" y="374" width="120" height="60" as="geometry" />
        </mxCell>
        <mxCell id="1BzoUXjY3kTclnEjUatC-11" value="主机/K8s Node" style="text;html=1;strokeColor=none;fillColor=none;align=center;verticalAlign=middle;whiteSpace=wrap;rounded=0;dashed=1;" parent="1" vertex="1">
          <mxGeometry x="414" y="237" width="94" height="20" as="geometry" />
        </mxCell>
        <mxCell id="1BzoUXjY3kTclnEjUatC-13" value="etcd" style="rounded=0;whiteSpace=wrap;html=1;fillColor=#e1d5e7;strokeColor=#9673a6;" parent="1" vertex="1">
          <mxGeometry x="148" y="217" width="120" height="60" as="geometry" />
        </mxCell>
        <mxCell id="1BzoUXjY3kTclnEjUatC-31" style="edgeStyle=orthogonalEdgeStyle;rounded=0;orthogonalLoop=1;jettySize=auto;html=1;exitX=0.07;exitY=0.4;exitDx=0;exitDy=0;exitPerimeter=0;entryX=0.5;entryY=1;entryDx=0;entryDy=0;strokeColor=#A680B8;" parent="1" source="1BzoUXjY3kTclnEjUatC-16" target="1BzoUXjY3kTclnEjUatC-21" edge="1">
          <mxGeometry relative="1" as="geometry" />
        </mxCell>
        <mxCell id="1BzoUXjY3kTclnEjUatC-37" style="edgeStyle=orthogonalEdgeStyle;rounded=0;orthogonalLoop=1;jettySize=auto;html=1;exitX=0.625;exitY=0.2;exitDx=0;exitDy=0;exitPerimeter=0;strokeColor=#A680B8;" parent="1" source="1BzoUXjY3kTclnEjUatC-16" target="1BzoUXjY3kTclnEjUatC-30" edge="1">
          <mxGeometry relative="1" as="geometry">
            <Array as="points">
              <mxPoint x="1076" y="270" />
              <mxPoint x="1076" y="212" />
              <mxPoint x="997" y="212" />
            </Array>
          </mxGeometry>
        </mxCell>
        <mxCell id="1BzoUXjY3kTclnEjUatC-16" value="es" style="ellipse;shape=cloud;whiteSpace=wrap;html=1;strokeColor=#b85450;fillColor=#f8cecc;" parent="1" vertex="1">
          <mxGeometry x="1011" y="254" width="120" height="80" as="geometry" />
        </mxCell>
        <mxCell id="1BzoUXjY3kTclnEjUatC-21" value="日志平台" style="shape=internalStorage;whiteSpace=wrap;html=1;backgroundOutline=1;strokeColor=#6c8ebf;fillColor=#dae8fc;" parent="1" vertex="1">
          <mxGeometry x="785" y="89" width="110" height="80" as="geometry" />
        </mxCell>
        <mxCell id="oQ9Hds3sEr1Gg1LyUPkT-1" style="edgeStyle=orthogonalEdgeStyle;rounded=0;orthogonalLoop=1;jettySize=auto;html=1;exitX=0;exitY=0.5;exitDx=0;exitDy=0;entryX=1;entryY=0.5;entryDx=0;entryDy=0;" edge="1" parent="1" source="1BzoUXjY3kTclnEjUatC-23" target="1BzoUXjY3kTclnEjUatC-1">
          <mxGeometry relative="1" as="geometry">
            <Array as="points">
              <mxPoint x="423" y="307" />
              <mxPoint x="423" y="429" />
            </Array>
          </mxGeometry>
        </mxCell>
        <mxCell id="oQ9Hds3sEr1Gg1LyUPkT-2" style="edgeStyle=orthogonalEdgeStyle;rounded=0;orthogonalLoop=1;jettySize=auto;html=1;exitX=0.5;exitY=1;exitDx=0;exitDy=0;entryX=0;entryY=0.5;entryDx=0;entryDy=0;" edge="1" parent="1" source="1BzoUXjY3kTclnEjUatC-23" target="1BzoUXjY3kTclnEjUatC-5">
          <mxGeometry relative="1" as="geometry" />
        </mxCell>
        <mxCell id="oQ9Hds3sEr1Gg1LyUPkT-3" style="edgeStyle=orthogonalEdgeStyle;rounded=0;orthogonalLoop=1;jettySize=auto;html=1;exitX=1;exitY=0.5;exitDx=0;exitDy=0;entryX=0;entryY=0.5;entryDx=0;entryDy=0;" edge="1" parent="1" source="1BzoUXjY3kTclnEjUatC-23" target="1BzoUXjY3kTclnEjUatC-4">
          <mxGeometry relative="1" as="geometry" />
        </mxCell>
        <mxCell id="1BzoUXjY3kTclnEjUatC-23" value="主机Agent&lt;br&gt;/动态配置Agent" style="rounded=1;whiteSpace=wrap;html=1;strokeColor=#d79b00;fillColor=#ffe6cc;" parent="1" vertex="1">
          <mxGeometry x="458" y="277" width="100" height="60" as="geometry" />
        </mxCell>
        <mxCell id="1BzoUXjY3kTclnEjUatC-30" value="监控平台" style="shape=internalStorage;whiteSpace=wrap;html=1;backgroundOutline=1;strokeColor=#6c8ebf;fillColor=#dae8fc;" parent="1" vertex="1">
          <mxGeometry x="942" y="89" width="110" height="80" as="geometry" />
        </mxCell>
        <mxCell id="1BzoUXjY3kTclnEjUatC-41" value="管理中心" style="text;html=1;strokeColor=none;fillColor=none;align=center;verticalAlign=middle;whiteSpace=wrap;rounded=0;" parent="1" vertex="1">
          <mxGeometry x="484" y="61" width="110" height="20" as="geometry" />
        </mxCell>
        <mxCell id="1BzoUXjY3kTclnEjUatC-46" style="edgeStyle=orthogonalEdgeStyle;rounded=0;orthogonalLoop=1;jettySize=auto;html=1;exitX=0;exitY=0;exitDx=120;exitDy=50;exitPerimeter=0;entryX=0.55;entryY=0.95;entryDx=0;entryDy=0;entryPerimeter=0;strokeColor=#A680B8;" parent="1" source="1BzoUXjY3kTclnEjUatC-43" target="1BzoUXjY3kTclnEjUatC-16" edge="1">
          <mxGeometry relative="1" as="geometry" />
        </mxCell>
        <mxCell id="1BzoUXjY3kTclnEjUatC-43" value="Kafka" style="shape=cube;whiteSpace=wrap;html=1;boundedLbl=1;backgroundOutline=1;darkOpacity=0.05;darkOpacity2=0.1;strokeColor=#b85450;fillColor=#f8cecc;" parent="1" vertex="1">
          <mxGeometry x="861" y="364" width="120" height="80" as="geometry" />
        </mxCell>
        <mxCell id="1BzoUXjY3kTclnEjUatC-47" value="转发与流式处理flink" style="shape=hexagon;perimeter=hexagonPerimeter2;whiteSpace=wrap;html=1;fixedSize=1;strokeColor=#b85450;fillColor=#f8cecc;" parent="1" vertex="1">
          <mxGeometry x="1021" y="364" width="120" height="80" as="geometry" />
        </mxCell>
        <mxCell id="1BzoUXjY3kTclnEjUatC-48" value="&lt;span&gt;主机管理平台&lt;/span&gt;" style="shape=internalStorage;whiteSpace=wrap;html=1;backgroundOutline=1;strokeColor=#6c8ebf;fillColor=#dae8fc;" parent="1" vertex="1">
          <mxGeometry x="608" y="89" width="124" height="80" as="geometry" />
        </mxCell>
      </root>
    </mxGraphModel>
  </diagram>
</mxfile>
